<svg width="15" height="16" viewBox="0 0 15 16" fill="none" xmlns="http://www.w3.org/2000/svg">
<path fill-rule="evenodd" clip-rule="evenodd" d="M7.61903 0C5.09408 0 3.0476 2.04648 3.0476 4.57143C3.0476 6.73371 5.05157 9.70795 6.40623 11.4702C7.02033 12.2695 8.21849 12.2695 8.83183 11.4702C10.1865 9.70795 12.1905 6.73371 12.1905 4.57143C12.1905 2.04648 10.144 0 7.61903 0ZM7.61903 2.93899C8.52112 2.93899 9.25147 3.66933 9.25147 4.57143C9.25147 5.47276 8.52036 6.20387 7.61903 6.20387C6.7177 6.20387 5.98659 5.47352 5.98659 4.57143C5.98659 3.66933 6.71693 2.93899 7.61903 2.93899ZM1.74998 11.625C1.9816 11.0467 2.54192 10.6667 3.16516 10.6667H3.80951C4.23008 10.6667 4.57141 11.008 4.57141 11.4286C4.57141 11.8491 4.23008 12.1905 3.80951 12.1905H3.16367L2.4598 13.9539C2.35923 14.2045 2.54277 14.4762 2.81248 14.4762H12.4256C12.6953 14.4762 12.8796 14.2045 12.7797 13.9539L12.0744 12.1905H11.4286C11.008 12.1905 10.6666 11.8491 10.6666 11.4286C10.6666 11.008 11.008 10.6667 11.4286 10.6667H12.0729C12.6961 10.6667 13.2565 11.0467 13.4881 11.625L14.4018 13.9107C14.8018 14.9119 14.0662 16 12.9881 16H2.24998C1.17189 16 0.436291 14.9119 0.836291 13.9107L1.74998 11.625Z" fill="#F36969"/>
</svg>
