<svg width="15" height="16" viewBox="0 0 15 16" fill="none" xmlns="http://www.w3.org/2000/svg">
<path fill-rule="evenodd" clip-rule="evenodd" d="M2.4 0.8C2.4 0.3584 2.7584 0 3.2 0C3.6416 0 4 0.3584 4 0.8V1.6H10.4V0.8C10.4 0.3584 10.7584 0 11.2 0C11.6416 0 12 0.3584 12 0.8V1.6H12.8C13.68 1.6 14.4 2.32 14.4 3.2V14.4C14.4 15.28 13.68 16 12.8 16H1.6C0.72 16 0 15.28 0 14.4V3.2C0 2.32 0.72 1.6 1.6 1.6H2.4V0.8ZM12.8 5.6H1.6V13.6C1.6 14.0416 1.9584 14.4 2.4 14.4H12C12.4416 14.4 12.8 14.0416 12.8 13.6V5.6Z" fill="#F36969"/>
</svg>
