<svg width="20" height="18" viewBox="0 0 20 18" fill="none" xmlns="http://www.w3.org/2000/svg">
<path fill-rule="evenodd" clip-rule="evenodd" d="M0 1C0 0.448 0.448 0 1 0H19C19.552 0 20 0.448 20 1V11C20 11.552 19.552 12 19 12H1C0.448 12 0 11.552 0 11V1ZM17.0879 2H2.91211C2.761 2.42591 2.42591 2.761 2 2.91211V9.08789C2.42591 9.239 2.761 9.57409 2.91211 10H17.0879C17.239 9.57409 17.5741 9.239 18 9.08789V2.91211C17.5741 2.761 17.239 2.42591 17.0879 2ZM10 3C8.34315 3 7 4.34315 7 6C7 7.65685 8.34315 9 10 9C11.6569 9 13 7.65685 13 6C13 4.34315 11.6569 3 10 3ZM4 6C4 5.447 4.448 5 5 5C5.552 5 6 5.447 6 6C6 6.553 5.552 7 5 7C4.448 7 4 6.553 4 6ZM15 5C14.448 5 14 5.447 14 6C14 6.553 14.448 7 15 7C15.552 7 16 6.553 16 6C16 5.447 15.552 5 15 5ZM17.2285 17.9688L1.99023 14H9.92773L15.8848 15.5508C16.1378 15.1788 16.5432 14.9394 16.9922 14.9004L17.2285 14H19.2949L18.4473 17.252C18.3083 17.786 17.7635 18.1077 17.2285 17.9688Z" fill="#F36969"/>
</svg>
