<svg width="20" height="20" viewBox="0 0 20 20" fill="none" xmlns="http://www.w3.org/2000/svg">
<path d="M19.48 11.7L11.5 7V1.5C11.5 0.67 10.83 0 10 0C9.17 0 8.5 0.67 8.5 1.5V7L0.52 11.7C0.2 11.88 0 12.23 0 12.6C0 13.3 0.67 13.8 1.34 13.61L8.5 11.51V17L6.24 18.35C6.09 18.44 6 18.61 6 18.78V19.28V19.36C6 19.69 6.31 19.93 6.62 19.85L9.54 19.12L10 19L10.38 19.09L10.8 19.2L12.7 19.68L13.37 19.85C13.69 19.93 13.99 19.69 13.99 19.36V18.99V18.78C13.99 18.6 13.9 18.44 13.75 18.35L11.5 17V11.5L18.66 13.6C19.33 13.8 20 13.3 20 12.6C20 12.23 19.8 11.88 19.48 11.7Z" fill="#F36969"/>
</svg>
